<?xml version="1.0" encoding="utf-8"?>
<!-- Generator: Adobe Illustrator 26.0.1, SVG Export Plug-In . SVG Version: 6.00 Build 0)  -->
<svg version="1.1" id="Layer_1" xmlns="http://www.w3.org/2000/svg" xmlns:xlink="http://www.w3.org/1999/xlink" x="0px" y="0px"
	 viewBox="0 0 179.79 99.35" style="enable-background:new 0 0 179.79 99.35;" xml:space="preserve">
<style type="text/css">
	.st0{fill:#FFFFFF;}
</style>
<g>
	<g>
		<g>
			<g>
				<g>
					<path class="st0" d="M77.95,33.22c0-2.77-0.07-2.9-1.78-2.9h-3.69c-6.06,0-7.84,0.72-10.28,6.06c-0.46,0.4-1.84,0.2-2.11-0.46
						c1.12-3.56,2.11-7.64,2.57-9.95c0.13-0.2,0.4-0.26,0.72-0.26c0.26,0,0.53,0.07,0.66,0.26c0.33,1.65,1.25,1.71,5.73,1.71h26.87
						c3.23,0,4.22-0.2,5.01-1.71c0.26-0.13,0.53-0.26,0.79-0.26c0.39,0,0.72,0.13,0.86,0.33c-0.66,2.7-1.18,8.36-0.99,10.47
						c-0.33,0.53-1.45,0.66-2.04,0.2c-0.86-5.14-2.11-6.39-9.16-6.39h-3.75c-1.71,0-1.78,0.13-1.78,2.9v28.46
						c0,6.98,0.59,7.18,3.69,7.51l2.37,0.26c0.46,0.46,0.4,1.65-0.13,1.91c-3.82-0.13-6.78-0.2-9.68-0.2c-2.9,0-5.99,0.07-10.21,0.2
						c-0.53-0.26-0.59-1.58-0.13-1.91l2.77-0.33c3.1-0.26,3.69-0.46,3.69-7.44V33.22z"/>
					<path class="st0" d="M145.07,38.75c-0.46,0.53-1.65,0.59-2.11,0.13c-1.12-4.15-4.08-9.62-12.78-9.62
						c-8.37,0-16.8,5.93-16.8,19.43c0,14.03,8.76,20.88,17.26,20.88c8.3,0,11.92-5.53,13.77-9.81c0.59-0.59,1.65-0.33,1.98,0.26
						c-0.46,4.41-2.24,8.76-3.16,10.01c-0.79,0.13-1.58,0.4-2.31,0.59c-1.45,0.46-5.99,1.58-10.27,1.58
						c-6.52,0-12.12-1.32-16.86-4.41c-5.34-3.49-9.35-9.48-9.35-18.11c0-7.71,3.42-13.7,8.3-17.46c4.87-3.69,11.53-5.6,18.18-5.6
						c3.75,0,8.3,0.66,11.39,1.45c0.79,0.2,1.25,0.26,1.84,0.4C144.28,29.99,144.41,33.88,145.07,38.75z"/>
				</g>
			</g>
			<path class="st0" d="M43.42,73.13c2.16-1.08,4.61-2.97,5.24-3.47c5.65-4.85,9.01-12.1,9.01-20.57c0-13.82-9.03-26.42-26.57-26.42
				c-15.94,0-27.18,11.46-27.18,26.95c0,13.82,9.03,26.42,26.57,26.42C35.29,76.04,39.66,75,43.42,73.13L43.42,73.13z M39.57,71.26
				c-2.52,1.68-5.34,2.43-8.08,2.43c-12.45,0-17.75-14.07-17.75-25.89c0-16.68,8.56-22.76,16.38-22.76
				c12.45,0,17.75,14.07,17.75,25.9c0,7.37-1.67,12.66-4.21,16.29C43.51,67.48,41.22,70.13,39.57,71.26z"/>
		</g>
		<g>
			<path class="st0" d="M151.76,38.25c-0.74,0-1.42-0.12-2.05-0.38c-0.63-0.25-1.17-0.6-1.63-1.04c-0.46-0.44-0.82-0.96-1.07-1.56
				c-0.25-0.6-0.38-1.26-0.38-1.97c0-0.7,0.13-1.35,0.38-1.95c0.26-0.6,0.61-1.12,1.07-1.56c0.46-0.44,1-0.78,1.63-1.03
				c0.63-0.25,1.31-0.38,2.05-0.38c0.74,0,1.42,0.12,2.05,0.38c0.63,0.25,1.18,0.59,1.64,1.03c0.46,0.44,0.83,0.96,1.09,1.56
				c0.26,0.6,0.39,1.25,0.39,1.95c0,0.71-0.13,1.36-0.39,1.97s-0.62,1.12-1.09,1.56c-0.46,0.44-1.01,0.79-1.64,1.04
				C153.18,38.12,152.5,38.25,151.76,38.25z M151.76,37.58c0.62,0,1.2-0.1,1.73-0.31s1-0.5,1.4-0.87c0.4-0.37,0.71-0.82,0.94-1.34
				c0.23-0.52,0.34-1.09,0.34-1.71c0-0.6-0.11-1.16-0.33-1.68c-0.22-0.52-0.53-0.97-0.92-1.35c-0.39-0.38-0.86-0.68-1.39-0.9
				c-0.54-0.22-1.12-0.33-1.76-0.33c-0.64,0-1.22,0.11-1.75,0.33c-0.53,0.22-0.99,0.52-1.38,0.9c-0.39,0.38-0.69,0.83-0.91,1.34
				c-0.22,0.51-0.33,1.07-0.33,1.66c0,0.6,0.11,1.16,0.33,1.68c0.22,0.52,0.52,0.97,0.91,1.36c0.39,0.39,0.85,0.69,1.38,0.91
				C150.54,37.47,151.12,37.58,151.76,37.58z M149.55,30.29h2.66c0.27,0,0.53,0.06,0.76,0.18c0.24,0.12,0.44,0.27,0.61,0.46
				c0.17,0.19,0.3,0.41,0.4,0.64c0.1,0.24,0.14,0.48,0.14,0.72c0,0.37-0.1,0.72-0.3,1.05c-0.2,0.33-0.46,0.55-0.79,0.68l1.41,2.27
				h-1.46l-1.26-2.02h-0.87v2.02h-1.3V30.29z M152.1,33.16c0.23,0,0.41-0.08,0.54-0.23c0.13-0.15,0.2-0.36,0.2-0.63
				c0-0.29-0.08-0.51-0.23-0.65c-0.15-0.14-0.33-0.21-0.54-0.21h-1.23v1.72H152.1z"/>
		</g>
	</g>
	<path class="st0" d="M99.07,2.17c-15.49,0-29.89,2.85-41.95,7.74l0,0c-0.27,0.11-0.52,0.23-0.78,0.34
		c-0.76,0.31-1.51,0.63-2.25,0.96c-0.63,0.28-1.26,0.58-1.87,0.87c-0.45,0.21-0.89,0.43-1.33,0.65c-0.59,0.3-1.19,0.59-1.77,0.9
		c-0.97,0.51-1.92,1.04-2.84,1.58l0,0c-1.14,0.67-2.26,1.37-3.34,2.08l-1.44,0.94c0,0-0.4,0.2-0.24,0.47c0,0-0.01,0.08,0.27,0.11
		c0.27,0.03,3.11,0.56,5.14,1.49l0.47,0.2c0,0,0.2,0.15,0.55-0.11l1.03-0.74c0.57-0.39,1.28-0.84,2.1-1.32v0.03
		c0.66-0.4,1.34-0.79,2.03-1.18c1.72-0.94,3.82-1.99,6.29-3.12c10.92-4.79,24.14-7.62,38.43-7.62c37.42,0,67.75,19.23,67.75,42.94
		c0,23.72-30.33,42.94-67.75,42.94c-24.63,0-46.19-8.33-58.05-20.8l-5.38-7.55c0,0-0.23-0.69-0.94-0.73
		c-0.72-0.04-4.31-0.25-7.64-2.03l-0.35-0.2c0,0-0.25-0.2-0.5-0.02l-0.44,0.4c0,0-0.24,0.24,0.03,0.6c0,0,5.4,8.15,8.64,11.79
		c0,0,0.01,0,0.01,0C46.3,87.79,70.91,97.17,99.07,97.17c42.41,0,76.79-21.27,76.79-47.5C175.86,23.44,141.48,2.17,99.07,2.17z"/>
</g>
</svg>
